/vscmnt/brussel_pixiu_data/_data_brussel/112/vsc11236/PredSimResults/SUBJ07mtu3D/worker8.mot
version=1
nRows=9
nColumns=50
inDegrees=yes
endheader
                time	         pelvis_tilt	         pelvis_list	     pelvis_rotation	           pelvis_tx	           pelvis_ty	           pelvis_tz	       hip_flexion_r	     hip_adduction_r	      hip_rotation_r	        knee_angle_r	       ankle_angle_r	         mtp_angle_r	       hip_flexion_l	     hip_adduction_l	      hip_rotation_l	        knee_angle_l	       ankle_angle_l	         mtp_angle_l	    lumbar_extension	      lumbar_bending	     lumbar_rotation	 ercspn_r/activation	 intobl_r/activation	 extobl_r/activation	    abd_r/activation	    add_r/activation	hamstrings_r/activation	bifemsh_r/activation	glut_max_r/activation	iliopsoas_r/activation	rect_fem_r/activation	  vasti_r/activation	gastroc_r/activation	 soleus_r/activation	tib_ant_r/activation	 ercspn_l/activation	 intobl_l/activation	 extobl_l/activation	    abd_l/activation	    add_l/activation	hamstrings_l/activation	bifemsh_l/activation	glut_max_l/activation	iliopsoas_l/activation	rect_fem_l/activation	  vasti_l/activation	gastroc_l/activation	 soleus_l/activation	tib_ant_l/activation	
          1.10900952	         -3.35745815	         -0.33314731	          8.31788184	          1.35299162	          0.85096519	         -0.01271469	         29.05852757	         -2.06881061	         -3.90210471	         -6.55281319	          3.91512503	          0.26616350	        -15.18926038	         -0.43713447	          3.38546121	         -9.11200182	          7.93037208	         27.94119936	        -11.23738261	         -1.33817245	         -1.41885519	          0.12122053	          0.13255067	          0.01000043	          0.01311689	          0.13671593	          0.07560301	          0.11882759	          0.07908138	          0.04199984	          0.01184722	          0.01000011	          0.01000022	          0.01000008	          0.36712851	          0.11797722	          0.01000010	          0.01000009	          0.03019843	          0.01666187	          0.01749538	          0.14029720	          0.01663489	          0.16396070	          0.01184897	          0.01016454	          0.15231426	          0.27587215	          0.01701338	
          1.12009962	         -3.36049555	         -0.28950954	          8.32001099	          1.36886327	          0.84938624	         -0.01233711	         28.86568388	         -1.86341878	         -3.61463955	         -8.08440010	          3.59881483	          0.24937428	        -15.67218837	         -0.51415432	          3.04416562	        -10.14114540	          6.98954185	         29.47288709	        -11.11078698	         -0.95379337	         -1.64921653	          0.10231017	          0.11986829	          0.01000018	          0.01107106	          0.11538834	          0.07023864	          0.11863268	          0.12795414	          0.03544786	          0.01000041	          0.01000015	          0.01486121	          0.01184852	          0.40134775	          0.13112850	          0.01000007	          0.01000080	          0.02548747	          0.03083276	          0.01477811	          0.11841092	          0.01403989	          0.13838357	          0.01000087	          0.01000016	          0.12855317	          0.25767106	          0.01435928	
          1.13118971	         -3.35725713	         -0.24045894	          8.27261369	          1.38487715	          0.84800750	         -0.01187768	         28.58182531	         -1.71070420	         -3.34277547	         -9.49536258	          3.18563808	          0.24525543	        -16.00323078	         -0.57161578	          2.66281867	        -11.46397541	          5.95017045	         30.93229278	        -10.98117601	         -0.57373558	         -1.87024403	          0.13555073	          0.10116883	          0.01000015	          0.09984755	          0.13529719	          0.06379928	          0.10425582	          0.12401236	          0.02991799	          0.01000016	          0.01000003	          0.01254288	          0.01000017	          0.46292565	          0.14699728	          0.01000004	          0.01000014	          0.02151141	          0.02602315	          0.01250015	          0.09993889	          0.01184974	          0.11679644	          0.01000170	          0.01000044	          0.10849881	          0.23593893	          0.01211923	
          1.14227981	         -3.34932064	         -0.17158685	          8.18040298	          1.40084311	          0.84699940	         -0.01132784	         28.29063503	         -1.57747329	         -3.12226528	        -10.87446986	          2.72202983	          0.22629020	        -16.10530284	         -0.59523305	          2.25595138	        -13.18344518	          4.78427459	         32.26114448	        -10.86880128	         -0.21431649	         -2.08102939	          0.14520543	          0.08538646	          0.01000013	          0.14777978	          0.16252713	          0.05385316	          0.08799205	          0.14797278	          0.02525078	          0.01000029	          0.01000013	          0.01058627	          0.01000009	          0.49081927	          0.18276812	          0.01000005	          0.01000016	          0.01815563	          0.03147917	          0.01192334	          0.08434850	          0.01000129	          0.09857666	          0.01000131	          0.01000033	          0.09157294	          0.20537391	          0.01022864	
          1.15336990	         -3.33661160	         -0.09066815	          8.04854407	          1.41662799	          0.84649484	         -0.01069546	         28.05229476	         -1.45116967	         -2.93489739	        -12.37233473	          2.47749929	          0.20756670	        -15.90915171	         -0.59405699	          1.82748326	        -15.39808723	          3.50877537	         33.31327632	        -10.78118877	          0.13144108	         -2.27928182	          0.15377644	          0.07206615	          0.01000011	          0.18661133	          0.18683644	          0.04880532	          0.07426541	          0.16916609	          0.02131166	          0.01000032	          0.02438504	          0.01000027	          0.01000020	          0.49277231	          0.21793653	          0.01000005	          0.01000016	          0.01532334	          0.05241623	          0.01311704	          0.07119025	          0.01000013	          0.08319893	          0.01000062	          0.01000013	          0.07728752	          0.17333550	          0.01000003	
          1.16446000	         -3.32028710	         -0.00085761	          7.87832019	          1.43213267	          0.84661564	         -0.00999657	         27.85367193	         -1.33131766	         -2.78232697	        -13.94875420	          2.47366225	          0.18918303	        -15.34793552	         -0.57191514	          1.36751518	        -18.20058602	          2.13743010	         33.88515673	        -10.72106340	          0.46490073	         -2.46175998	          0.15880364	          0.06082381	          0.01000010	          0.20606658	          0.20829239	          0.04736981	          0.06268017	          0.17764345	          0.01798705	          0.01000032	          0.05238108	          0.01000040	          0.01000018	          0.47486309	          0.24195699	          0.01000005	          0.01000016	          0.01293290	          0.08279756	          0.01406698	          0.06008472	          0.01000008	          0.07022001	          0.01000044	          0.01000007	          0.06523063	          0.14629507	          0.01000005	
          1.17555009	         -3.30185147	          0.09722567	          7.66983180	          1.44733132	          0.84741046	         -0.00925099	         27.61624998	         -1.21401157	         -2.65333213	        -15.44873098	          2.68460776	          0.17468435	        -14.37916238	         -0.53461657	          0.87737012	        -21.63607945	          0.62451778	         33.82748518	        -10.68306023	          0.78515345	         -2.62451592	          0.15435188	          0.05133527	          0.01000010	          0.20875190	          0.21814235	          0.04706386	          0.05290229	          0.17750132	          0.01518109	          0.01000029	          0.07281881	          0.01000037	          0.01000014	          0.44290710	          0.24887550	          0.01000005	          0.01000019	          0.01091537	          0.10670717	          0.01471964	          0.05071172	          0.01000006	          0.05926575	          0.01000033	          0.01000004	          0.05505462	          0.12347296	          0.01000004	
          1.18664019	         -3.28276520	          0.20027388	          7.42374295	          1.46223088	          0.84882477	         -0.00846917	         27.27074771	         -1.09158282	         -2.52622485	        -16.73751053	          3.06980856	          0.17168991	        -12.99648320	         -0.49417392	          0.38237718	        -25.65447974	         -1.18576744	         33.14780796	        -10.66077993	          1.09340671	         -2.76454472	          0.13027332	          0.04332695	          0.01000009	          0.20034161	          0.21610531	          0.05218525	          0.04464985	          0.16531144	          0.01281286	          0.01000036	          0.09799840	          0.01000025	          0.01000010	          0.40041452	          0.25520267	          0.01000004	          0.01000014	          0.01000001	          0.12304639	          0.01252643	          0.04280101	          0.01000004	          0.05002034	          0.01000027	          0.01000002	          0.04646607	          0.10421111	          0.01000004	
          1.19773028	         -3.26483100	          0.30543951	          7.14056923	          1.47682353	          0.85075723	         -0.00764685	         26.77199119	         -0.95565554	         -2.36775540	        -17.71824220	          3.57468608	          0.19732466	        -11.22568629	         -0.45799823	         -0.08028624	        -30.13851344	         -3.36970160	         31.73894213	        -10.65349181	          1.38727495	         -2.88214871	          0.10995065	          0.03656793	          0.01000012	          0.20027708	          0.20190349	          0.06109488	          0.03768486	          0.13952303	          0.01081410	          0.01000024	          0.12060325	          0.01000041	          0.01000014	          0.35531355	          0.24996453	          0.01000006	          0.01000015	          0.01000002	          0.13099407	          0.01192090	          0.03612424	          0.01000006	          0.04221719	          0.01000015	          0.01000002	          0.03921735	          0.08795412	          0.03505307	
